inDegrees=yes
name=ik_XSDot_20210820_202113_orientations
DataType=double
version=3
OpenSimVersion=4.5
endheader
time	pelvis_tilt	pelvis_list	pelvis_rotation	pelvis_tx	pelvis_ty	pelvis_tz	hip_flexion_r	hip_adduction_r	hip_rotation_r	knee_angle_r	knee_angle_r_beta	ankle_angle_r	subtalar_angle_r	mtp_angle_r	hip_flexion_l	hip_adduction_l	hip_rotation_l	knee_angle_l	knee_angle_l_beta	ankle_angle_l	subtalar_angle_l	mtp_angle_l	lumbar_extension	lumbar_bending	lumbar_rotation	arm_flex_r	arm_add_r	arm_rot_r	elbow_flex_r	pro_sup_r	wrist_flex_r	wrist_dev_r	arm_flex_l	arm_add_l	arm_rot_l	elbow_flex_l	pro_sup_l	wrist_flex_l	wrist_dev_l
1.430000000000001	23.11800132888219	5.726712266403717	-5.949293201540248	0	0.9399999999999999	0	-29.90532084104034	-5.308696085491397	-7.168864423790585	0.01108636066544643	0.0001934934956756297	-3.196275170571175	0	0	-8.85287890353492	8.340144488021847	1.983957373721374	41.70262545902574	0.7278481209860108	-3.196275170571175	0	0	0	0	0	0	-1.749292113661564	0	55.85695749178569	50.56004811545945	0	0	0	-1.749292113661564	0	55.85695749178569	50.56004811545945	0	0
1.440000000000001	23.44660774104922	6.147561204252076	-5.810700481544139	0	0.9399999999999999	0	-29.95142287987921	-5.784229109911318	-7.722307425325623	0.0108678370077906	0.0001896795383560346	-3.199971397209021	0	0	-10.30411212605308	8.605123998061689	2.207333107092145	42.49910563674844	0.7417493225141415	-3.199971397209021	0	0	0	0	0	0	-1.752372908974034	0	55.86612086155415	50.55305223162415	0	0	0	-1.752372908974034	0	55.86612086155415	50.55305223162415	0	0
1.450000000000001	23.75075805145182	6.641899882660542	-5.725681920941139	0	0.9399999999999999	0	-29.96702575291156	-6.543869435500394	-8.282395705211016	0.01065800501026184	0.0001860172791231212	-3.208612085948931	0	0	-12.43206773129384	8.841574281143156	2.420157517238206	42.72188019253582	0.745637472002299	-3.208612085948931	0	0	0	0	0	0	-1.759694570987432	0	55.88782023613363	50.53660404473924	0	0	0	-1.759694570987432	0	55.88782023613363	50.53660404473924	0	0
1.460000000000001	24.03219335330927	7.008284914025903	-5.671447552826654	0	0.9399999999999999	0	-29.97482246076616	-7.508232291087296	-8.660474395207331	0.01041619972286399	0.0001817969807092975	-3.219764864708201	0	0	-16.62530368024414	8.528899197149155	2.597225764148974	40.81753174684185	0.7124003215197029	-3.219764864708201	0	0	0	0	0	0	-1.769155812151838	0	55.91586462714526	50.51535455217592	0	0	0	-1.769155812151838	0	55.91586462714526	50.51535455217592	0	0
1.470000000000001	24.26932651904625	7.381581522439986	-5.610957470719052	0	0.9399999999999999	0	-29.97950084922548	-8.529396475950852	-8.936018977987617	0.01007204155358708	0.0001757902875077794	-3.228541735062243	0	0	-19.48864088432071	8.145803309367599	3.001217057276512	40.21135331849173	0.7018205120904287	-3.228541735062243	0	0	0	0	0	0	-1.776662507332123	0	55.93807948547703	50.49858019137075	0	0	0	-1.776662507332123	0	55.93807948547703	50.49858019137075	0	0
1.480000000000001	24.43984939017634	7.727085083108767	-5.532206633752495	0	0.9399999999999999	0	-29.9827137487475	-9.372463930611747	-9.195816194001681	0.00969570715968297	0.0001692220132456554	-3.237003694330384	0	0	-22.30220690685317	7.767696108383235	3.475772969480124	39.57735387872816	0.690755134410755	-3.237003694330384	0	0	0	0	0	0	-1.78392615796928	0	55.95956362684376	50.48238169341506	0	0	0	-1.78392615796928	0	55.95956362684376	50.48238169341506	0	0
1.490000000000001	24.62701166522416	8.04618387620542	-5.453106148961784	0	0.9399999999999999	0	-29.98488790131549	-10.34361146198408	-9.375197115211799	0.009389383667892399	0.0001638756597377041	-3.245152283403409	0	0	-24.52919306012793	7.184239851766661	3.721171842519429	39.64444735353841	0.6919261364527977	-3.245152283403409	0	0	0	0	0	0	-1.790969762261662	0	55.9803672189981	50.46674258025489	0	0	0	-1.790969762261662	0	55.9803672189981	50.46674258025489	0	0
1.500000000000001	24.8432150024064	8.293629466854712	-5.385865610022508	0	0.9399999999999999	0	-29.98642760419212	-11.24453316986552	-9.44639078752436	0.009120916318760885	0.0001591900205612581	-3.256423807737831	0	0	-25.93384024981055	6.084668462717913	3.721867965991977	40.54743932526981	0.7076863194785861	-3.256423807737831	0	0	0	0	0	0	-1.802397888688701	0	56.01458219747558	50.44293470300377	0	0	0	-1.802397888688701	0	56.01458219747558	50.44293470300377	0	0
1.510000000000001	25.01953828305519	8.519968427793907	-5.368090519208711	0	0.9399999999999999	0	-29.98754868973179	-11.82697876185085	-9.540100720970489	0.008886948971157415	0.0001551065200034195	-3.265783250098576	0	0	-26.43954551762275	5.601895945209518	3.74468656565213	42.17711013489473	0.7361294408301826	-3.265783250098576	0	0	0	0	0	0	-1.810666745878327	0	56.03888345399981	50.42483843810971	0	0	0	-1.810666745878327	0	56.03888345399981	50.42483843810971	0	0
1.520000000000001	25.15750516267151	8.563291946733614	-5.360886599942858	0	0.9399999999999999	0	-29.98845144042802	-11.95293321263787	-9.622615605313202	0.008700827124153633	0.0001518580809633104	-3.276706414397411	0	0	-26.7726931867779	5.254944900712091	3.785851082241995	43.7224997923957	0.7631015785798422	-3.276706414397411	0	0	0	0	0	0	-1.820387701633013	0	56.06741391475268	50.40365824041126	0	0	0	-1.820387701633013	0	56.06741391475268	50.40365824041126	0	0
1.530000000000001	25.27697365080897	8.541002994978315	-5.36058620632091	0	0.9399999999999999	0	-29.98922251863133	-11.87438534780093	-9.628602773821608	0.008544623891439375	0.0001491318202501876	-3.288997451521862	0	0	-26.60713106036562	5.585541729576301	3.925368996827099	45.61973658989636	0.7962146073862215	-3.288997451521862	0	0	0	0	0	0	-1.831599215782576	0	56.10013135957643	50.37962817991473	0	0	0	-1.831599215782576	0	56.10013135957643	50.37962817991473	0	0
1.540000000000001	25.3834367336752	8.428065333129188	-5.431056626252131	0	0.9399999999999999	0	-29.9898199380028	-11.81730339018078	-9.465148294372243	0.008397452914307473	0.0001465632021358586	-3.302165521403537	0	0	-26.4020258815279	5.383539517977059	3.925310862171883	47.477516892651	0.8286389904479872	-3.302165521403537	0	0	0	0	0	0	-1.843755227590928	0	56.13551722402303	50.35377061375569	0	0	0	-1.843755227590928	0	56.13551722402303	50.35377061375569	0	0
1.550000000000001	25.46641424066914	8.322653917615547	-5.412226446402894	0	0.9399999999999999	0	-29.99028162368365	-11.91725547336345	-9.245726760277613	0.008247104274687283	0.0001439391233485919	-3.314913729946602	0	0	-26.02430920435345	4.885488952039733	3.934797845577127	49.39068678933283	0.8620301042951248	-3.314913729946602	0	0	0	0	0	0	-1.855733851878601	0	56.17024276737592	50.32858920780057	0	0	0	-1.855733851878601	0	56.17024276737592	50.32858920780057	0	0
1.560000000000001	25.53781095618595	8.315805888641799	-5.335099723469093	0	0.9399999999999999	0	-29.99068958133118	-12.23123432178551	-9.040501387365845	0.008090304839402896	0.0001412024569376116	-3.326567098834484	0	0	-25.77635514810853	4.782925699538569	4.02816205623576	50.99912807072016	0.8901027004803304	-3.326567098834484	0	0	0	0	0	0	-1.86671686372411	0	56.20207814407579	50.30553045898132	0	0	0	-1.86671686372411	0	56.20207814407579	50.30553045898132	0	0
1.570000000000001	25.57007177969464	8.370024629427563	-5.247636980448637	0	0.9399999999999999	0	-29.99099776860682	-12.56068835767363	-8.935903535256665	0.007933872696174384	0.0001384722009823227	-3.341133708208256	0	0	-25.13203439137294	5.0667488581958	3.994314350709224	52.81112643962231	0.9217280380584396	-3.341133708208256	0	0	0	0	0	0	-1.880399641520853	0	56.24180169651676	50.27670999323445	0	0	0	-1.880399641520853	0	56.24180169651676	50.27670999323445	0	0
1.580000000000001	25.57989627063297	8.462430393491687	-5.145814106545292	0	0.9399999999999999	0	-29.99123837168828	-12.66280122349609	-8.954115288179885	0.007801567411270366	0.0001361630381429585	-3.354776291743908	0	0	-24.49238460995233	5.523176816869861	3.979511295695292	54.41959835919438	0.9498011689808457	-3.354776291743908	0	0	0	0	0	0	-1.893579268405836	0	56.27981378471648	50.24946576380269	0	0	0	-1.893579268405836	0	56.27981378471648	50.24946576380269	0	0
1.590000000000001	25.60814370447664	8.509224092783247	-4.985017586077753	0	0.9399999999999999	0	-29.99143095300879	-12.4494455737655	-9.006406239943292	0.00769628614991073	0.0001343255334915801	-3.366764217160982	0	0	-24.14295583527963	5.796932518017359	4.088063538349441	55.58259703443018	0.9700993250600426	-3.366764217160982	0	0	0	0	0	0	-1.905887600672135	0	56.31475374743883	50.22508556599332	0	0	0	-1.905887600672135	0	56.31475374743883	50.22508556599332	0	0
1.600000000000001	25.6158537706838	8.500947952100983	-4.806327533195594	0	0.9399999999999999	0	-29.99151686338476	-12.0503511930463	-9.060950664858915	0.007606725940991031	0.0001327624129671574	-3.370812910603517	0	0	-24.01482392787667	5.682487767051084	4.264690314337257	56.38648283791147	0.9841297791408311	-3.370812910603517	0	0	0	0	0	0	-1.909615588875031	0	56.32564205716773	50.21711324202087	0	0	0	-1.909615588875031	0	56.32564205716773	50.21711324202087	0	0
1.610000000000001	25.64444085012471	8.53198604601428	-4.725706278565382	0	0.9399999999999999	0	-29.99154140137739	-11.84459176909725	-8.977823334385949	0.007543460326636559	0.0001316582196933749	-3.377809453168183	0	0	-24.10151872243593	5.564622544942234	4.416091365263746	56.78378469412097	0.9910640046559721	-3.377809453168183	0	0	0	0	0	0	-1.916616109131377	0	56.34567605205449	50.20297034825123	0	0	0	-1.916616109131377	0	56.34567605205449	50.20297034825123	0	0
